<!-- icon666.com - MILLIONS vector ICONS FREE --><svg version="1.1" id="Layer_1" xmlns="http://www.w3.org/2000/svg" xmlns:xlink="http://www.w3.org/1999/xlink" x="0px" y="0px" viewBox="0 0 512 512" style="enable-background:new 0 0 512 512;" xml:space="preserve"><polygon style="" points="22.289,503.879 324.548,363.031 160.28,200.306 " fill="#FFB819"></polygon><g><circle style="fill: rgb(255, 179, 0);" cx="201.043" cy="322.501" r="36.672" fill="#FFD26C"></circle><path style="fill: rgb(255, 179, 0);" d="M100.079,332.743c10.151,0.593,20.496-3,28.214-10.792c14.135-14.268,14.138-37.218,0.103-51.501 L100.079,332.743z" fill="#FFD26C"></path><path style="fill: rgb(255, 179, 0);" d="M59.775,465.112c-7.193,7.262-10.723,16.771-10.61,26.243l60.574-28.227 C95.275,450.658,73.42,451.339,59.775,465.112z" fill="#FFD26C"></path><path style="fill: rgb(255, 179, 0);" d="M205.623,390.963c-8.7,8.783-12.039,20.855-10.054,32.17l64.207-29.92 c-0.723-0.858-1.478-1.693-2.289-2.497C243.096,376.464,219.877,376.573,205.623,390.963z" fill="#FFD26C"></path><circle style="fill: rgb(255, 179, 0);" cx="116.823" cy="395.449" r="36.672" fill="#FFD26C"></circle></g><polygon style="" points="142.693,238.996 286.022,380.981 324.548,363.031 160.28,200.306 " fill="#004D7A"></polygon><g><circle style="" cx="195.012" cy="125.323" r="25.013" fill="#00BCB4"></circle><circle style="" cx="386.386" cy="326.637" r="25.013" fill="#00BCB4"></circle></g><g><circle style="" cx="440.764" cy="215.055" r="25.013" fill="#FFB819"></circle><circle style="" cx="250.592" cy="33.133" r="25.013" fill="#FFB819"></circle></g><g><circle style="" cx="321.191" cy="253.429" r="25.013" fill="#D85C72"></circle><circle style="" cx="336.361" cy="109.114" r="25.013" fill="#D85C72"></circle><circle style="" cx="464.618" cy="120.591" r="25.013" fill="#D85C72"></circle></g><path style="" d="M489.712,220.134c-4.486,0-8.121,3.636-8.121,8.121c0,25.761-20.958,46.718-46.718,46.718 c-25.76,0-46.718-20.958-46.718-46.718c0-34.717-28.244-62.96-62.96-62.96s-62.96,28.244-62.96,62.96 c0,4.485,3.635,8.121,8.121,8.121c4.486,0,8.121-3.636,8.121-8.121c0-25.761,20.959-46.718,46.718-46.718 c25.761,0,46.718,20.958,46.718,46.718c0,34.717,28.244,62.96,62.96,62.96c34.718,0,62.96-28.244,62.96-62.96 C497.833,223.77,494.198,220.134,489.712,220.134z M440.76,248.188c18.269,0,33.131-14.864,33.131-33.133 s-14.862-33.133-33.131-33.133c-18.27,0-33.134,14.864-33.134,33.133C407.627,233.326,422.49,248.188,440.76,248.188z M440.76,198.166c9.313,0,16.889,7.576,16.889,16.891s-7.576,16.891-16.889,16.891c-9.314,0-16.892-7.576-16.892-16.891 C423.869,205.742,431.447,198.166,440.76,198.166z M464.618,153.727c18.269,0,33.133-14.864,33.133-33.133 s-14.863-33.133-33.133-33.133c-18.27,0-33.133,14.864-33.133,33.133C431.487,138.863,446.349,153.727,464.618,153.727z M464.618,103.704c9.314,0,16.891,7.577,16.891,16.891c0,9.314-7.576,16.891-16.891,16.891s-16.891-7.577-16.891-16.891 C447.729,111.28,455.305,103.704,464.618,103.704z M255.56,120.893c0,35.176-28.617,63.793-63.793,63.793 c-4.485,0-8.121,3.636-8.121,8.121c0,4.485,3.636,8.121,8.121,8.121c44.132,0,80.035-35.903,80.035-80.035 c0-35.176,28.617-63.793,63.793-63.793s63.793,28.617,63.793,63.793c0,4.485,3.636,8.121,8.121,8.121 c4.486,0,8.121-3.636,8.121-8.121c0-44.132-35.903-80.035-80.035-80.035S255.56,76.763,255.56,120.893z M165.995,194.537 c-1.887-1.87-4.57-2.698-7.183-2.218c-2.613,0.48-4.826,2.208-5.925,4.627L14.895,500.518c-1.407,3.095-0.737,6.737,1.677,9.13 c1.554,1.54,3.621,2.352,5.717,2.352c1.161,0,2.33-0.248,3.428-0.76l302.261-140.848c2.408-1.123,4.116-3.351,4.571-5.968 c0.456-2.618-0.397-5.293-2.285-7.162L165.995,194.537z M38.773,487.238l106.488-234.266l126.763,125.574L38.773,487.238z M287.719,371.232L152.427,237.209l10.422-22.928L310.55,360.595L287.719,371.232z M250.592,66.265 c18.269,0,33.131-14.864,33.131-33.133C283.724,14.862,268.86,0,250.592,0c-18.269,0-33.133,14.862-33.133,33.133 C217.46,51.402,232.323,66.265,250.592,66.265z M250.592,16.242c9.313,0,16.889,7.576,16.889,16.891s-7.576,16.891-16.889,16.891 c-9.313,0-16.891-7.577-16.891-16.891C233.702,23.818,241.279,16.242,250.592,16.242z M321.192,220.301 c-18.269,0-33.131,14.864-33.131,33.133c0,18.269,14.863,33.133,33.131,33.133c18.27,0,33.134-14.864,33.134-33.133 C354.325,235.163,339.462,220.301,321.192,220.301z M321.192,270.323c-9.313,0-16.889-7.576-16.889-16.891 c0-9.314,7.576-16.891,16.889-16.891c9.314,0,16.892,7.576,16.892,16.891C338.083,262.746,330.506,270.323,321.192,270.323z M195.013,158.459c18.269,0,33.133-14.864,33.133-33.133s-14.864-33.131-33.133-33.131c-18.27,0-33.133,14.862-33.133,33.131 S176.744,158.459,195.013,158.459z M195.013,108.437c9.313,0,16.891,7.576,16.891,16.889c0,9.314-7.577,16.891-16.891,16.891 c-9.314,0-16.891-7.577-16.891-16.891S185.7,108.437,195.013,108.437z M386.386,293.507c-18.269,0-33.131,14.862-33.131,33.131 s14.862,33.133,33.131,33.133c18.27,0,33.135-14.864,33.135-33.133S404.657,293.507,386.386,293.507z M386.386,343.529 c-9.313,0-16.889-7.576-16.889-16.891c0-9.314,7.576-16.889,16.889-16.889c9.315,0,16.893,7.576,16.893,16.889 C403.279,335.951,395.701,343.529,386.386,343.529z M303.234,109.11c0,18.27,14.863,33.133,33.131,33.133 c18.27,0,33.134-14.864,33.134-33.133s-14.864-33.133-33.134-33.133S303.234,90.841,303.234,109.11z M353.256,109.11 c0,9.314-7.577,16.891-16.892,16.891c-9.313,0-16.889-7.577-16.889-16.891s7.576-16.891,16.889-16.891 C345.678,92.22,353.256,99.797,353.256,109.11z" fill="#022A3A"></path></svg>